<svg width="113" height="19" viewBox="0 0 113 19" fill="none" xmlns="http://www.w3.org/2000/svg">
<path d="M4.03906 11.9883V18H0.523438V0.9375H7.17969C8.46094 0.9375 9.58594 1.17188 10.5547 1.64062C11.5312 2.10938 12.2812 2.77734 12.8047 3.64453C13.3281 4.50391 13.5898 5.48438 13.5898 6.58594C13.5898 8.25781 13.0156 9.57812 11.8672 10.5469C10.7266 11.5078 9.14453 11.9883 7.12109 11.9883H4.03906ZM4.03906 9.14062H7.17969C8.10938 9.14062 8.81641 8.92188 9.30078 8.48438C9.79297 8.04688 10.0391 7.42188 10.0391 6.60938C10.0391 5.77344 9.79297 5.09766 9.30078 4.58203C8.80859 4.06641 8.12891 3.80078 7.26172 3.78516H4.03906V9.14062ZM19.3672 18H15.9688V5.32031H19.3672V18ZM15.7695 2.03906C15.7695 1.53125 15.9375 1.11328 16.2734 0.785156C16.6172 0.457031 17.082 0.292969 17.668 0.292969C18.2461 0.292969 18.707 0.457031 19.0508 0.785156C19.3945 1.11328 19.5664 1.53125 19.5664 2.03906C19.5664 2.55469 19.3906 2.97656 19.0391 3.30469C18.6953 3.63281 18.2383 3.79688 17.668 3.79688C17.0977 3.79688 16.6367 3.63281 16.2852 3.30469C15.9414 2.97656 15.7695 2.55469 15.7695 2.03906ZM26.0586 15.2695H32.2578V18H21.7344V15.9375L27.6992 8.0625H21.9102V5.32031H32.0703V7.32422L26.0586 15.2695ZM38.2695 15.2695H44.4688V18H33.9453V15.9375L39.9102 8.0625H34.1211V5.32031H44.2812V7.32422L38.2695 15.2695ZM53.9375 18C53.7812 17.6953 53.668 17.3164 53.5977 16.8633C52.7773 17.7773 51.7109 18.2344 50.3984 18.2344C49.1562 18.2344 48.125 17.875 47.3047 17.1562C46.4922 16.4375 46.0859 15.5312 46.0859 14.4375C46.0859 13.0938 46.582 12.0625 47.5742 11.3438C48.5742 10.625 50.0156 10.2617 51.8984 10.2539H53.457V9.52734C53.457 8.94141 53.3047 8.47266 53 8.12109C52.7031 7.76953 52.2305 7.59375 51.582 7.59375C51.0117 7.59375 50.5625 7.73047 50.2344 8.00391C49.9141 8.27734 49.7539 8.65234 49.7539 9.12891H46.3672C46.3672 8.39453 46.5938 7.71484 47.0469 7.08984C47.5 6.46484 48.1406 5.97656 48.9688 5.625C49.7969 5.26562 50.7266 5.08594 51.7578 5.08594C53.3203 5.08594 54.5586 5.48047 55.4727 6.26953C56.3945 7.05078 56.8555 8.15234 56.8555 9.57422V15.0703C56.8633 16.2734 57.0312 17.1836 57.3594 17.8008V18H53.9375ZM51.1367 15.6445C51.6367 15.6445 52.0977 15.5352 52.5195 15.3164C52.9414 15.0898 53.2539 14.7891 53.457 14.4141V12.2344H52.1914C50.4961 12.2344 49.5938 12.8203 49.4844 13.9922L49.4727 14.1914C49.4727 14.6133 49.6211 14.9609 49.918 15.2344C50.2148 15.5078 50.6211 15.6445 51.1367 15.6445Z" fill="#FFA650"/>
<path d="M72.5234 3.78516H67.2969V18H63.7812V3.78516H58.625V0.9375H72.5234V3.78516ZM77.8906 18H74.4922V5.32031H77.8906V18ZM74.293 2.03906C74.293 1.53125 74.4609 1.11328 74.7969 0.785156C75.1406 0.457031 75.6055 0.292969 76.1914 0.292969C76.7695 0.292969 77.2305 0.457031 77.5742 0.785156C77.918 1.11328 78.0898 1.53125 78.0898 2.03906C78.0898 2.55469 77.9141 2.97656 77.5625 3.30469C77.2188 3.63281 76.7617 3.79688 76.1914 3.79688C75.6211 3.79688 75.1602 3.63281 74.8086 3.30469C74.4648 2.97656 74.293 2.55469 74.293 2.03906ZM83.8672 5.32031L83.9727 6.73828C84.8711 5.63672 86.0859 5.08594 87.6172 5.08594C89.25 5.08594 90.3711 5.73047 90.9805 7.01953C91.8711 5.73047 93.1406 5.08594 94.7891 5.08594C96.1641 5.08594 97.1875 5.48828 97.8594 6.29297C98.5312 7.08984 98.8672 8.29297 98.8672 9.90234V18H95.4688V9.91406C95.4688 9.19531 95.3281 8.67188 95.0469 8.34375C94.7656 8.00781 94.2695 7.83984 93.5586 7.83984C92.543 7.83984 91.8398 8.32422 91.4492 9.29297L91.4609 18H88.0742V9.92578C88.0742 9.19141 87.9297 8.66016 87.6406 8.33203C87.3516 8.00391 86.8594 7.83984 86.1641 7.83984C85.2031 7.83984 84.5078 8.23828 84.0781 9.03516V18H80.6914V5.32031H83.8672ZM107.316 18.2344C105.457 18.2344 103.941 17.6641 102.77 16.5234C101.605 15.3828 101.023 13.8633 101.023 11.9648V11.6367C101.023 10.3633 101.27 9.22656 101.762 8.22656C102.254 7.21875 102.949 6.44531 103.848 5.90625C104.754 5.35938 105.785 5.08594 106.941 5.08594C108.676 5.08594 110.039 5.63281 111.031 6.72656C112.031 7.82031 112.531 9.37109 112.531 11.3789V12.7617H104.457C104.566 13.5898 104.895 14.2539 105.441 14.7539C105.996 15.2539 106.695 15.5039 107.539 15.5039C108.844 15.5039 109.863 15.0312 110.598 14.0859L112.262 15.9492C111.754 16.668 111.066 17.2305 110.199 17.6367C109.332 18.0352 108.371 18.2344 107.316 18.2344ZM106.93 7.82812C106.258 7.82812 105.711 8.05469 105.289 8.50781C104.875 8.96094 104.609 9.60938 104.492 10.4531H109.203V10.1836C109.188 9.43359 108.984 8.85547 108.594 8.44922C108.203 8.03516 107.648 7.82812 106.93 7.82812Z" fill="#DBDBDB"/>
</svg>
